HIERARCHY
ROOT ui
{
	 OFFSET 0 0 0
	 CHANNELS 3 XPosition YPosition Z Position
	 EndSite
	 {
	 OFFSET 0 -1 0
	 }
}
ROOT li
{
	 OFFSET 0 0 0
	 CHANNELS 3 XPosition YPosition Z Position
	 EndSite
	 {
	 OFFSET 0 -1 0
	 }
}
ROOT ul
{
	 OFFSET 0 0 0
	 CHANNELS 3 XPosition YPosition Z Position
	 EndSite
	 {
	 OFFSET 0 -1 0
	 }
}
ROOT ll
{
	 OFFSET 0 0 0
	 CHANNELS 3 XPosition YPosition Z Position
	 EndSite
	 {
	 OFFSET 0 -1 0
	 }
}
ROOT tt
{
	 OFFSET 0 0 0
	 CHANNELS 3 XPosition YPosition Z Position
	 EndSite
	 {
	 OFFSET 0 -1 0
	 }
}
ROOT tb
{
	 OFFSET 0 0 0
	 CHANNELS 3 XPosition YPosition Z Position
	 EndSite
	 {
	 OFFSET 0 -1 0
	 }
}
ROOT td
{
	 OFFSET 0 0 0
	 CHANNELS 3 XPosition YPosition Z Position
	 EndSite
	 {
	 OFFSET 0 -1 0
	 }
}
ROOT v
{
	 OFFSET 0 0 0
	 CHANNELS 3 XPosition YPosition Z Position
	 EndSite
	 {
	 OFFSET 0 -1 0
	 }
}
ROOT bn
{
	 OFFSET 0 0 0
	 CHANNELS 3 XPosition YPosition Z Position
	 EndSite
	 {
	 OFFSET 0 -1 0
	 }
}
MOTION
Frames: 21
Frame Time: 0.002
-0.04565736770629883	0.004655568122863769	0		0.46056820678710936	-2.341594970703125	0		-0.954993408203125	0.26161654663085937	0		-0.65403271484375	-2.52903515625	0		1.8531982421875	-0.15401490783691407	0		3.325405517578125	0.09922613525390625	0		4.45199267578125	0.155356201171875	0		5.805173828125	0.36532058715820315	0		-0.17631471252441405	5.940224609375	0		
0.02627358627319336	-0.001950538992881775	0		0.4565254211425781	-2.346453857421875	0		-0.8972202758789063	0.24833151245117188	0		-0.6899287109375	-2.527163330078125	0		1.8209044189453125	-0.1692238464355469	0		3.32235595703125	0.09435194396972656	0		4.43592333984375	0.14978390502929687	0		5.79723974609375	0.36556649780273437	0		-0.17626554870605468	5.94027099609375	0		
-0.048670677185058596	8.13838005065918E-4	0		0.4554976806640625	-2.348387451171875	0		-0.8972078247070312	0.248371337890625	0		-0.626156982421875	-2.538590576171875	0		1.832707763671875	-0.17845155334472657	0		3.32790771484375	0.07426815032958985	0		4.4375908203125	0.13479302978515625	0		5.797861328125	0.34860198974609374	0		-0.19051414489746094	5.92963671875	0		
0.026249689102172853	-0.0018718080520629882	0		0.4585784912109375	-2.343420166015625	0		-0.8913615112304687	0.24327035522460938	0		-0.689943359375	-2.527087158203125	0		1.8106080322265625	-0.18090568542480467	0		3.32787060546875	0.07431020355224609	0		4.4313486328125	0.1259769973754883	0		5.79877783203125	0.34662542724609374	0		-0.17631121826171875	5.9403486328125	0		
-0.048789493560791014	8.830680251121521E-4	0		0.47033493041992186	-2.3506611328125	0		-0.8973272705078125	0.24843841552734375	0		-0.6540552368164062	-2.528882080078125	0		1.8105263671875	-0.18087144470214844	0		3.32444482421875	0.05941881561279297	0		4.43331201171875	0.12796737670898437	0		5.80192431640625	0.3565920715332031	0		-0.1763990478515625	5.940380859375	0		
0.029116416931152345	0.0011193690299987793	0		0.462471435546875	-2.33945166015625	0		-0.8974468383789063	0.2484663543701172	0		-0.6957948608398438	-2.5118935546875	0		1.80731591796875	-0.1847721710205078	0		3.324325439453125	0.05944887542724609	0		4.412921875	0.11646052551269531	0		5.79857568359375	0.3466949462890625	0		-0.176521484375	5.9404091796875	0		
-0.024062681198120116	3.6193600296974184E-4	0		0.4602790832519531	-2.34138037109375	0		-0.89171044921875	0.2433544921875	0		-0.6651107177734376	-2.5195791015625	0		1.796872802734375	-0.19751419067382814	0		3.33241796875	0.026275884628295897	0		4.4206123046875	0.10930374145507812	0		5.80642626953125	0.34653643798828127	0		-0.17666917419433595	5.94043408203125	0		
0.02573714256286621	-0.0017649489641189575	0		0.4580691223144531	-2.343312744140625	0		-0.9018487548828125	0.2446053924560547	0		-0.7001972045898438	-2.51575439453125	0		1.7964560546875	-0.20849041748046876	0		3.2943330078125	0.030168418884277345	0		4.405314453125	0.10367012786865235	0		5.7982646484375	0.3467401428222656	0		-0.1768318328857422	5.94045556640625	0		
-0.024396785736083983	4.0129199624061584E-4	0		0.4578979797363281	-2.343294921875	0		-0.8961351928710938	0.23948736572265625	0		-0.663401123046875	-2.517585693359375	0		1.7831744384765624	-0.21317324829101564	0		3.315468017578125	-3.1241199374198916E-4	0		4.40993603515625	0.09457373046875	0		5.8060927734375	0.34657183837890626	0		-0.1598429412841797	5.9470810546875	0		
0.028469520568847655	0.00119854998588562	0		0.43794287109375	-2.333822998046875	0		-0.998158935546875	0.2468446807861328	0		-0.6913082885742188	-2.505929931640625	0		1.7830086669921874	-0.21315919494628907	0		3.307763916015625	0.019879163742065428	0		4.3987734375	0.09483880615234375	0		5.81429248046875	0.3623953857421875	0		-0.17425384521484374	5.9364208984375	0		
0.028317649841308593	0.0012110730409622193	0		0.46578173828125	-2.334453857421875	0		-0.8982451171875	0.24855992126464843	0		-0.6544949340820313	-2.507766357421875	0		1.773905029296875	-0.21094187927246094	0		3.301878173828125	-0.01198766326904297	0		4.401322265625	0.0817823257446289	0		5.8010068359375	0.35670343017578127	0		-0.17730825805664063	5.94050146484375	0		
0.025117061614990235	-0.0017091989517211913	0		0.4615330200195312	-2.339351318359375	0		-0.9024681396484375	0.24466386413574218	0		-0.7044560546875	-2.49960888671875	0		1.7776334228515625	-0.21702400207519532	0		3.28774951171875	-0.0116594820022583	0		4.38605615234375	0.07613390350341796	0		5.8056435546875	0.34659518432617187	0		-0.17743447875976562	5.94051171875	0		
-0.02495945930480957	4.467329978942871E-4	0		0.4852959289550781	-2.344894287109375	0		-0.9066483764648438	0.24176536560058592	0		-0.7045721435546874	-2.499600341796875	0		1.746482666015625	-0.21830615234375	0		3.299219970703125	-0.029927318572998046	0		4.37764697265625	0.06332270431518555	0		5.80553125	0.34659481811523435	0		-0.17753904724121095	5.94051953125	0		
-0.025054615020751955	4.5195600390434266E-4	0		0.4353936767578125	-2.335743408203125	0		-0.9736334838867188	0.24731037902832032	0		-0.692858642578125	-2.50786767578125	0		1.7392052001953124	-0.22614109802246093	0		3.280313720703125	-0.02149349784851074	0		4.37550634765625	0.0613667106628418	0		5.81380224609375	0.3624018249511719	0		-0.17762382507324218	5.94052490234375	0		
0.02789893341064453	0.0012365410327911377	0		0.46327978515625	-2.337384521484375	0		-0.9027531127929688	0.24468423461914063	0		-0.6986192626953125	-2.49372900390625	0		1.7422174072265626	-0.2222120361328125	0		3.295702392578125	-0.04485936737060547	0		4.3774736328125	0.06331352996826171	0		5.82272216796875	0.3621852111816406	0		-0.17768930053710938	5.9405283203125	0		
-0.02212521553039551	0.0033855419158935547	0		0.46528167724609376	-2.33443212890625	0		-0.9028128051757812	0.24468699645996095	0		-0.6647411499023438	-2.496507568359375	0		1.7390653076171876	-0.2261462860107422	0		3.29564208984375	-0.04486772918701172	0		4.3629345703125	0.04262956237792969	0		5.82586865234375	0.37109884643554686	0		-0.17773390197753905	5.940529296875	0		
0.024729867935180665	-0.0016960680484771728	0		0.5119915161132812	-2.345513671875	0		-0.9128040161132812	0.2469165802001953	0		-0.7095248413085937	-2.484476806640625	0		1.735932861328125	-0.23008430480957032	0		3.302116943359375	-0.06603596496582032	0		4.37654541015625	0.02729550552368164	0		5.8348271484375	0.37087115478515625	0		-0.17873257446289062	5.9415498046875	0		
-0.02525352478027344	4.4666099548339844E-4	0		0.461091796875	-2.339350830078125	0		-0.91691357421875	0.2430066680908203	0		-0.6576361694335937	-2.4886748046875	0		1.75356298828125	-0.24550665283203124	0		3.264198974609375	-0.06118181228637695	0		4.364529296875	0.02754916000366211	0		5.8396005859375	0.3617310791015625	0		-0.17775375366210938	5.940521484375	0		
0.024712751388549805	-0.0017132259607315064	0		0.4610845947265625	-2.339363525390625	0		-0.98198486328125	0.2404951629638672	0		-0.7008165893554688	-2.495692138671875	0		1.7466121826171874	-0.24336424255371095	0		3.29564111328125	-0.08593540191650391	0		4.3661865234375	0.012478352546691895	0		5.84797021484375	0.377508056640625	0		-0.17674995422363282	5.93948876953125	0		
-0.01239002227783203	-0.0068767848014831545	0		0.4760492858886719	-2.341725830078125	0		-0.9028412475585937	0.2446656494140625	0		-0.6627667236328125	-2.4945791015625	0		1.7524969482421875	-0.24952452087402344	0		3.31207568359375	-0.06833912658691406	0		4.3662119140625	0.012442366600036621	0		5.84799755859375	0.37746524047851565	0		-0.16247088623046874	5.9491494140625	0		
0.02785481834411621	0.0011799030303955079	0		0.46834091186523436	-2.330568115234375	0		-0.9086749877929687	0.24978594970703125	0		-0.7182561645507812	-2.47331396484375	0		1.752544189453125	-0.249554443359375	0		3.28244140625	-0.09770206451416015	0		4.353171875	0.008699176788330078	0		5.84325634765625	0.3865270385742188	0		-0.1775951385498047	5.9404765625	0		
